# xmcd CD database file
# Copyright (C) 1993-1998 Ti Kan
#
# Track frame offsets:
#	182
#	12505
#	24462
#	36932
#	50225
#	62840
#	75985
#	90182
#	102117
#	114632
#	126222
#	140430
#	153757
#	165860
#	177637
#	188797
#	201330
#	211560
#	222212
#	232812
#
# Disc length: 3258 seconds
#
# Revision: 1
# Processed by: cddbd v1.4b41PL1 Copyright (c) Steve Scherf et al.
# Submitted via: CDValet v3.31 - Copyright (c) 1997 Greg Leichner
#
DISCID=030cb814
DTITLE=Little Esther - Better Beware
DYEAR=1900
DGENRE=
TTITLE0=Looking For A Man
TTITLE1=Other Lips, Other Arms
TTITLE2=The Deacon Moves On
TTITLE3=I'm A Bad, Bad Girl
TTITLE4=Crying And Singing The Blues
TTITLE5=Ring-A-Ding Doo
TTITLE6=Hold Me
TTITLE7=Better Beware
TTITLE8=Aged And Mellow Blues
TTITLE9=Ramblin' Blues
TTITLE10=The Storm
TTITLE11=Hollerin' And Screamin'
TTITLE12=Saturday Night Daddy
TTITLE13=Mainliner
TTITLE14=You Took My Love Too Fast
TTITLE15=Last Laugh Blues
TTITLE16=Flesh, Blood And Bones
TTITLE17=Turn The Lamps Down Low
TTITLE18=Cherry Wine
TTITLE19=Hound Dog
EXTD=
EXTT0=
EXTT1=
EXTT2=
EXTT3=
EXTT4=
EXTT5=
EXTT6=
EXTT7=
EXTT8=
EXTT9=
EXTT10=
EXTT11=
EXTT12=
EXTT13=
EXTT14=
EXTT15=
EXTT16=
EXTT17=
EXTT18=
EXTT19=
PLAYORDER=
